<mxfile host="65bd71144e">
    <diagram id="0NMrAdoAzoI9vjW468gd" name="Page-1">
        <mxGraphModel dx="2607" dy="434" grid="1" gridSize="10" guides="1" tooltips="1" connect="1" arrows="1" fold="1" page="1" pageScale="1" pageWidth="1920" pageHeight="1200" math="0" shadow="0">
            <root>
                <mxCell id="0"/>
                <mxCell id="1" style="locked=1;" parent="0"/>
                <mxCell id="2" value="background" style="rounded=0;whiteSpace=wrap;html=1;fillColor=#f5f5f5;fontColor=#333333;strokeColor=#666666;" parent="1" vertex="1">
                    <mxGeometry x="-2" width="1922" height="1200" as="geometry"/>
                </mxCell>
                <mxCell id="4" value="ProcessDiagram" style="" parent="0"/>
                <object label="&lt;span style=&quot;color: rgb(0, 0, 0);&quot;&gt;ImageXvrPlot&lt;/span&gt;=imagexvrplot" id="7">
                    <mxCell style="rounded=0;whiteSpace=wrap;html=1;strokeWidth=2;" parent="4" vertex="1">
                        <mxGeometry x="883" y="160" width="286" height="241" as="geometry"/>
                    </mxCell>
                </object>
                <mxCell id="8" style="edgeStyle=orthogonalEdgeStyle;shape=connector;rounded=0;html=1;strokeColor=default;align=center;verticalAlign=middle;fontFamily=Helvetica;fontSize=11;fontColor=default;labelBackgroundColor=default;endArrow=classic;strokeWidth=2;entryX=0.354;entryY=0.56;entryDx=0;entryDy=0;exitX=0.977;exitY=0.691;exitDx=0;exitDy=0;exitPerimeter=0;entryPerimeter=0;" parent="4" source="10" target="17" edge="1">
                    <mxGeometry relative="1" as="geometry">
                        <mxPoint x="1291" y="490" as="targetPoint"/>
                        <mxPoint x="818" y="490" as="sourcePoint"/>
                    </mxGeometry>
                </mxCell>
                <mxCell id="9" value="" style="edgeStyle=orthogonalEdgeStyle;shape=connector;rounded=0;html=1;strokeColor=default;align=center;verticalAlign=middle;fontFamily=Helvetica;fontSize=11;fontColor=default;labelBackgroundColor=default;endArrow=classic;strokeWidth=2;entryDx=0;entryDy=0;exitX=1.075;exitY=0.825;exitDx=0;exitDy=0;exitPerimeter=0;entryX=-0.003;entryY=0.691;entryPerimeter=0;" parent="4" target="10" edge="1">
                    <mxGeometry relative="1" as="geometry">
                        <mxPoint x="818" y="490" as="targetPoint"/>
                        <mxPoint x="620" y="227" as="sourcePoint"/>
                        <Array as="points">
                            <mxPoint x="620" y="490"/>
                        </Array>
                    </mxGeometry>
                </mxCell>
                <mxCell id="10" value="" style="verticalLabelPosition=bottom;align=center;html=1;verticalAlign=top;pointerEvents=1;dashed=0;shape=mxgraph.pid2valves.valve;valveType=gate;actuator=diaph;rotation=0;strokeWidth=1;" parent="4" vertex="1">
                    <mxGeometry x="672" y="462" width="50" height="40" as="geometry"/>
                </mxCell>
                <mxCell id="11" value="27FV2010" style="text;html=1;align=center;verticalAlign=middle;whiteSpace=wrap;rounded=0;fontFamily=Helvetica;fontSize=10;fontColor=default;labelBackgroundColor=default;fillColor=none;" parent="4" vertex="1">
                    <mxGeometry x="703" y="441" width="60" height="30" as="geometry"/>
                </mxCell>
                <mxCell id="12" value="27-FIC&lt;div&gt;2010&lt;/div&gt;" style="html=1;outlineConnect=0;align=center;dashed=0;aspect=fixed;shape=mxgraph.pid2inst.sharedCont;mounting=room;strokeWidth=2;" parent="4" vertex="1">
                    <mxGeometry x="783" y="388" width="48" height="48" as="geometry"/>
                </mxCell>
                <mxCell id="15" style="edgeStyle=none;html=1;entryX=0;entryY=0.5;entryDx=0;entryDy=0;strokeWidth=2;" parent="4" source="17" edge="1">
                    <mxGeometry relative="1" as="geometry">
                        <mxPoint x="1337" y="490" as="targetPoint"/>
                    </mxGeometry>
                </mxCell>
                <mxCell id="16" style="edgeStyle=none;html=1;entryX=0.5;entryY=1;entryDx=0;entryDy=0;strokeWidth=1;dashed=1;" parent="4" source="17" target="12" edge="1">
                    <mxGeometry relative="1" as="geometry"/>
                </mxCell>
                <mxCell id="17" value="" style="shape=waypoint;sketch=0;fillStyle=solid;size=6;pointerEvents=1;points=[];fillColor=none;resizable=0;rotatable=0;perimeter=centerPerimeter;snapToPoint=1;fontFamily=Helvetica;fontSize=11;fontColor=default;labelBackgroundColor=default;strokeWidth=2;" parent="4" vertex="1">
                    <mxGeometry x="797" y="479" width="20" height="20" as="geometry"/>
                </mxCell>
                <mxCell id="18" style="edgeStyle=orthogonalEdgeStyle;html=1;rounded=0;curved=0;entryX=0.499;entryY=0.063;entryDx=0;entryDy=0;entryPerimeter=0;dashed=1;strokeWidth=1;" parent="4" source="12" target="10" edge="1">
                    <mxGeometry relative="1" as="geometry">
                        <mxPoint x="692" y="371" as="targetPoint"/>
                    </mxGeometry>
                </mxCell>
                <object label="&lt;font style=&quot;font-size: 4px;&quot;&gt;&lt;span style=&quot;color: rgb(63, 63, 63);&quot;&gt;ImageStatusLabel&lt;/span&gt;=imagestatuslabel&lt;/font&gt;" Texts="&quot;Text1 with space&quot; &quot;Text2!&quot; &quot;Text3&quot; &quot;Text4&quot;" Colors="&quot;red&quot; &quot;blue&quot; &quot;#548235&quot; &quot;orange&quot;" id="20">
                    <mxCell style="rounded=0;whiteSpace=wrap;html=1;strokeWidth=2;" parent="4" vertex="1">
                        <mxGeometry x="669" y="371" width="56" height="17" as="geometry"/>
                    </mxCell>
                </object>
                <mxCell id="13" value="&lt;span style=&quot;white-space: pre;&quot;&gt;&#x9;&lt;/span&gt;&lt;span style=&quot;white-space: pre;&quot;&gt;&#x9;&lt;/span&gt;%" style="rounded=0;whiteSpace=wrap;html=1;fontFamily=Helvetica;fontSize=11;fontColor=default;labelBackgroundColor=none;labelBorderColor=none;fillColor=light-dark(#d7d7d7, #EDEDED);strokeColor=none;" parent="4" vertex="1">
                    <mxGeometry x="667.0000000000005" y="506" width="56" height="29" as="geometry"/>
                </mxCell>
                <object label="&lt;font style=&quot;font-size: 4px;&quot;&gt;&lt;span style=&quot;color: rgb(63, 63, 63);&quot;&gt;ImageXvr&lt;/span&gt;=imagexvr&lt;/font&gt;" Colors="&quot;Blue&quot;" id="14">
                    <mxCell style="rounded=0;whiteSpace=wrap;html=1;strokeWidth=2;" parent="4" vertex="1">
                        <mxGeometry x="671.0000000000005" y="512" width="39" height="17" as="geometry"/>
                    </mxCell>
                </object>
            </root>
        </mxGraphModel>
    </diagram>
</mxfile>